<?xml version="1.0" encoding="utf-8"?>
<!-- Generator: Adobe Illustrator 24.0.3, SVG Export Plug-In . SVG Version: 6.00 Build 0)  -->
<svg version="1.1" id="Layer_1" xmlns="http://www.w3.org/2000/svg" xmlns:xlink="http://www.w3.org/1999/xlink" x="0px" y="0px"
	 viewBox="0 0 1380.58 130.88" style="enable-background:new 0 0 1380.58 130.88;" xml:space="preserve">
<style type="text/css">
	.st0{fill:#F2F2F2;}
	.st1{opacity:0.29;fill:#F2F2F2;}
</style>
<g>
	<g>
		<rect x="745.98" y="7.44" class="st0" width="37.66" height="121.4"/>
		<rect x="743.17" y="8.16" class="st0" width="43.29" height="1.23"/>
		<rect x="744.34" y="25.21" class="st0" width="40.95" height="1.23"/>
		<rect x="744.34" y="41.73" class="st0" width="40.95" height="1.23"/>
		<rect x="744.34" y="58.24" class="st0" width="40.95" height="1.23"/>
		<rect x="744.34" y="74.76" class="st0" width="40.95" height="1.23"/>
		<rect x="744.34" y="91.27" class="st0" width="40.95" height="1.23"/>
		<rect x="744.34" y="107.78" class="st0" width="40.95" height="1.23"/>
		<rect x="741.74" y="4.81" class="st0" width="46.15" height="3.35"/>
		<rect x="749.37" y="13.38" class="st1" width="3.91" height="9.7"/>
		<rect x="758.13" y="13.38" class="st0" width="3.91" height="9.7"/>
		<rect x="766.88" y="13.38" class="st0" width="3.91" height="9.7"/>
		<rect x="775.63" y="13.38" class="st0" width="3.91" height="9.7"/>
		<rect x="749.37" y="29.24" class="st0" width="3.91" height="9.7"/>
		<rect x="758.13" y="29.24" class="st1" width="3.91" height="9.7"/>
		<rect x="766.88" y="29.24" class="st0" width="3.91" height="9.7"/>
		<rect x="775.63" y="29.24" class="st0" width="3.91" height="9.7"/>
		<rect x="749.37" y="45.75" class="st0" width="3.91" height="9.7"/>
		<rect x="758.13" y="45.75" class="st0" width="3.91" height="9.7"/>
		<rect x="766.88" y="45.75" class="st0" width="3.91" height="9.7"/>
		<rect x="775.63" y="45.75" class="st1" width="3.91" height="9.7"/>
		<rect x="749.37" y="62.26" class="st0" width="3.91" height="9.7"/>
		<rect x="758.13" y="62.26" class="st1" width="3.91" height="9.7"/>
		<rect x="766.88" y="62.26" class="st1" width="3.91" height="9.7"/>
		<rect x="775.63" y="62.26" class="st0" width="3.91" height="9.7"/>
		<rect x="749.37" y="78.78" class="st1" width="3.91" height="9.7"/>
		<rect x="758.13" y="78.78" class="st0" width="3.91" height="9.7"/>
		<rect x="766.88" y="78.78" class="st0" width="3.91" height="9.7"/>
		<rect x="775.63" y="78.78" class="st0" width="3.91" height="9.7"/>
		<rect x="749.37" y="95.29" class="st0" width="3.91" height="9.7"/>
		<rect x="758.13" y="95.29" class="st0" width="3.91" height="9.7"/>
		<rect x="766.88" y="95.29" class="st1" width="3.91" height="9.7"/>
		<rect x="775.63" y="95.29" class="st0" width="3.91" height="9.7"/>
		<rect x="749.37" y="111.81" class="st0" width="3.91" height="9.7"/>
		<rect x="758.13" y="111.81" class="st1" width="3.91" height="9.7"/>
		<rect x="766.88" y="111.81" class="st0" width="3.91" height="9.7"/>
		<rect x="775.63" y="111.81" class="st1" width="3.91" height="9.7"/>
		<rect x="748.36" y="0.18" class="st0" width="12.81" height="6.31"/>
		<rect x="747.49" class="st0" width="14.55" height="1.08"/>
	</g>
	<polygon class="st0" points="503.74,19.02 503.74,20.22 502.54,20.22 502.54,23.63 523.53,23.63 523.53,128.84 489.09,128.84 
		489.09,29.12 489.09,23.63 489.09,20.22 487.84,20.22 487.84,19.02 	"/>
	<rect x="1269.58" y="66.81" class="st0" width="29.51" height="62.03"/>
	<rect x="476.38" y="94.37" class="st0" width="29.3" height="34.47"/>
	<rect x="222.36" y="66.33" class="st0" width="23.84" height="62.51"/>
	<rect x="346.96" y="97.48" class="st0" width="31.36" height="31.36"/>
	<rect x="202.74" y="92.35" class="st0" width="19.62" height="36.48"/>
	<rect x="218.55" y="117.41" class="st0" width="46.36" height="11.43"/>
	<rect x="193.63" y="113.72" class="st0" width="23.76" height="15.12"/>
	<rect x="386.85" y="105.77" class="st0" width="36.94" height="23.07"/>
	<rect x="1323.04" y="118.9" class="st0" width="57.54" height="9.94"/>
	<rect x="1286.43" y="40.03" class="st0" width="0.61" height="37.88"/>
	<rect x="1293.72" y="96.84" class="st0" width="35.75" height="31.99"/>
	<rect x="1322.64" y="61.62" class="st0" width="22.97" height="61.73"/>
	<rect x="779.54" y="108.35" class="st0" width="44.24" height="20.49"/>
	<g>
		
			<rect x="797.17" y="54.7" transform="matrix(-1 -1.224647e-16 1.224647e-16 -1 1649.3823 183.5379)" class="st0" width="55.05" height="74.14"/>
		
			<rect x="795.75" y="51.86" transform="matrix(-1 -1.224647e-16 1.224647e-16 -1 1651.1719 106.556)" class="st0" width="59.68" height="2.84"/>
		
			<rect x="825.59" y="44.14" transform="matrix(-1 -1.224647e-16 1.224647e-16 -1 1675.3622 103.3061)" class="st0" width="24.19" height="15.03"/>
		
			<rect x="813.62" y="44.14" transform="matrix(-1 -1.224647e-16 1.224647e-16 -1 1631.3048 97.4157)" class="st0" width="4.06" height="9.14"/>
		
			<rect x="805.09" y="44.14" transform="matrix(-1 -1.224647e-16 1.224647e-16 -1 1614.6492 97.4157)" class="st0" width="4.47" height="9.14"/>
	</g>
	<path class="st0" d="M467.88,118.74c-1.27-3.27-4.83-4.99-8.14-4.05l-2.7-6.86h4.53c0.54,0,0.98,0.44,0.98,0.98
		c0,0.54-0.44,0.98-0.98,0.98c-0.38,0-0.68,0.3-0.68,0.68c0,0.38,0.3,0.68,0.68,0.68c1.29,0,2.34-1.05,2.34-2.34
		c0-1.29-1.05-2.34-2.34-2.34h-5.53c-0.23,0-0.44,0.11-0.56,0.3c-0.13,0.19-0.15,0.42-0.07,0.63l1.18,2.99h-10.65l-1.91-3.23h2.72
		v-1.36h-3.18h-2.9v1.36h1.78l2.32,3.92l-5.6,9.78c-0.12,0.21-0.12,0.47,0,0.68c0.12,0.21,0.35,0.34,0.59,0.34h5.36
		c-0.09,0.71-0.32,1.4-0.69,2.03c-0.72,1.25-1.89,2.14-3.29,2.51c-1.4,0.37-2.85,0.18-4.1-0.55c-1.25-0.72-2.14-1.89-2.51-3.29
		c-0.37-1.4-0.18-2.85,0.55-4.1c0.96-1.66,2.76-2.69,4.68-2.69c0.01,0,0.02,0,0.03,0l0.01-1.36c-0.01,0-0.02,0-0.03,0
		c-2.41,0-4.65,1.29-5.86,3.37c-0.91,1.56-1.15,3.39-0.69,5.13c0.46,1.75,1.58,3.21,3.14,4.11c1.07,0.62,2.23,0.91,3.38,0.91
		c2.33,0,4.61-1.21,5.86-3.37c0.49-0.85,0.79-1.77,0.88-2.71h4.82v-0.68l0.01,0l0.01,0.68c0.24,0,0.47-0.13,0.59-0.34l5.4-9.31
		l3.63,9.21l1.27-0.5l-1.96-4.98c2.61-0.66,5.36,0.7,6.37,3.27c0.52,1.34,0.49,2.81-0.09,4.14c-0.58,1.32-1.64,2.34-2.99,2.86
		c-1.34,0.52-2.81,0.49-4.14-0.09c-1.32-0.58-2.34-1.64-2.86-2.99c-0.7-1.8-0.38-3.85,0.83-5.36l-1.06-0.85
		c-1.52,1.89-1.92,4.45-1.04,6.71c0.66,1.68,1.93,3.01,3.58,3.74c0.87,0.38,1.79,0.57,2.72,0.57c0.83,0,1.66-0.15,2.46-0.47
		c1.68-0.66,3.01-1.93,3.74-3.58C468.49,122.26,468.53,120.42,467.88,118.74z M440.93,120.51l2.08-3.63
		c0.96,0.72,1.66,1.74,1.97,2.93c0.06,0.23,0.1,0.47,0.13,0.71H440.93z M446.49,120.51c-0.04-0.35-0.1-0.71-0.19-1.06
		c-0.41-1.54-1.32-2.85-2.61-3.77l1.84-3.22l4.6,8.05H446.49z M451.32,119.84l-4.63-8.1h9.34L451.32,119.84z"/>
	<path class="st0" d="M612.87,118.74c-1.27-3.27-4.83-4.99-8.14-4.05l-2.7-6.86h4.53c0.54,0,0.98,0.44,0.98,0.98
		c0,0.54-0.44,0.98-0.98,0.98c-0.38,0-0.68,0.3-0.68,0.68c0,0.38,0.3,0.68,0.68,0.68c1.29,0,2.34-1.05,2.34-2.34
		c0-1.29-1.05-2.34-2.34-2.34h-5.53c-0.23,0-0.44,0.11-0.56,0.3c-0.13,0.19-0.15,0.42-0.07,0.63l1.18,2.99h-10.65l-1.91-3.23h2.72
		v-1.36h-3.18h-2.9v1.36h1.78l2.32,3.92l-5.6,9.78c-0.12,0.21-0.12,0.47,0,0.68c0.12,0.21,0.35,0.34,0.59,0.34h5.36
		c-0.09,0.71-0.32,1.4-0.69,2.03c-0.72,1.25-1.89,2.14-3.29,2.51c-1.4,0.37-2.85,0.18-4.1-0.55c-1.25-0.72-2.14-1.89-2.51-3.29
		c-0.37-1.4-0.18-2.85,0.55-4.1c0.96-1.66,2.76-2.69,4.68-2.69c0.01,0,0.02,0,0.03,0l0.01-1.36c-0.01,0-0.02,0-0.03,0
		c-2.41,0-4.65,1.29-5.86,3.37c-0.91,1.56-1.15,3.39-0.69,5.13c0.46,1.75,1.58,3.21,3.14,4.11c1.07,0.62,2.23,0.91,3.38,0.91
		c2.33,0,4.61-1.21,5.86-3.37c0.49-0.85,0.79-1.77,0.88-2.71h4.82v-0.68l0.01,0l0.01,0.68c0.24,0,0.47-0.13,0.59-0.34l5.4-9.31
		l3.63,9.21l1.27-0.5l-1.96-4.98c2.61-0.66,5.36,0.7,6.37,3.27c0.52,1.34,0.49,2.81-0.09,4.14c-0.58,1.32-1.64,2.34-2.99,2.86
		c-1.34,0.52-2.81,0.49-4.14-0.09c-1.32-0.58-2.34-1.64-2.86-2.99c-0.7-1.8-0.38-3.85,0.83-5.36l-1.06-0.85
		c-1.52,1.89-1.92,4.45-1.04,6.71c0.66,1.68,1.93,3.01,3.58,3.74c0.87,0.38,1.79,0.57,2.72,0.57c0.83,0,1.66-0.15,2.46-0.47
		c1.68-0.66,3.01-1.93,3.74-3.58C613.49,122.26,613.53,120.42,612.87,118.74z M585.93,120.51l2.08-3.63
		c0.96,0.72,1.66,1.74,1.97,2.93c0.06,0.23,0.1,0.47,0.13,0.71H585.93z M591.49,120.51c-0.04-0.35-0.1-0.71-0.19-1.06
		c-0.41-1.54-1.32-2.85-2.61-3.77l1.84-3.22l4.6,8.05H591.49z M596.32,119.84l-4.63-8.1h9.34L596.32,119.84z"/>
	<path class="st0" d="M732.47,118.74c-1.27-3.27-4.83-4.99-8.14-4.05l-2.7-6.86h4.53c0.54,0,0.98,0.44,0.98,0.98
		c0,0.54-0.44,0.98-0.98,0.98c-0.38,0-0.68,0.3-0.68,0.68c0,0.38,0.3,0.68,0.68,0.68c1.29,0,2.34-1.05,2.34-2.34
		c0-1.29-1.05-2.34-2.34-2.34h-5.53c-0.23,0-0.44,0.11-0.56,0.3c-0.13,0.19-0.15,0.42-0.07,0.63l1.18,2.99h-10.65l-1.91-3.23h2.72
		v-1.36h-3.18h-2.9v1.36h1.78l2.32,3.92l-5.6,9.78c-0.12,0.21-0.12,0.47,0,0.68c0.12,0.21,0.35,0.34,0.59,0.34h5.36
		c-0.09,0.71-0.32,1.4-0.69,2.03c-0.72,1.25-1.89,2.14-3.29,2.51c-1.4,0.37-2.85,0.18-4.1-0.55c-1.25-0.72-2.14-1.89-2.51-3.29
		c-0.37-1.4-0.18-2.85,0.55-4.1c0.96-1.66,2.76-2.69,4.68-2.69c0.01,0,0.02,0,0.03,0l0.01-1.36c-0.01,0-0.02,0-0.03,0
		c-2.41,0-4.65,1.29-5.86,3.37c-0.91,1.56-1.15,3.39-0.69,5.13c0.46,1.75,1.58,3.21,3.14,4.11c1.07,0.62,2.23,0.91,3.38,0.91
		c2.33,0,4.61-1.21,5.86-3.37c0.49-0.85,0.79-1.77,0.88-2.71h4.82v-0.68l0.01,0l0.01,0.68c0.24,0,0.47-0.13,0.59-0.34l5.4-9.31
		l3.63,9.21l1.27-0.5l-1.96-4.98c2.61-0.66,5.36,0.7,6.37,3.27c0.52,1.34,0.49,2.81-0.09,4.14c-0.58,1.32-1.64,2.34-2.99,2.86
		c-1.34,0.52-2.81,0.49-4.14-0.09c-1.32-0.58-2.34-1.64-2.86-2.99c-0.7-1.8-0.38-3.85,0.83-5.36l-1.06-0.85
		c-1.52,1.89-1.92,4.45-1.04,6.71c0.66,1.68,1.93,3.01,3.58,3.74c0.87,0.38,1.79,0.57,2.72,0.57c0.83,0,1.66-0.15,2.46-0.47
		c1.68-0.66,3.01-1.93,3.74-3.58C733.09,122.26,733.13,120.42,732.47,118.74z M705.53,120.51l2.08-3.63
		c0.96,0.72,1.66,1.74,1.97,2.93c0.06,0.23,0.1,0.47,0.13,0.71H705.53z M711.09,120.51c-0.04-0.35-0.1-0.71-0.19-1.06
		c-0.41-1.54-1.32-2.85-2.61-3.77l1.84-3.22l4.6,8.05H711.09z M715.92,119.84l-4.63-8.1h9.34L715.92,119.84z"/>
	<path class="st0" d="M1050.34,93.13c-1.27-3.27-4.83-4.99-8.14-4.05l-2.7-6.86h4.53c0.54,0,0.98,0.44,0.98,0.98
		c0,0.54-0.44,0.98-0.98,0.98c-0.38,0-0.68,0.3-0.68,0.68c0,0.38,0.3,0.68,0.68,0.68c1.29,0,2.34-1.05,2.34-2.34
		c0-1.29-1.05-2.34-2.34-2.34h-5.53c-0.22,0-0.44,0.11-0.56,0.3c-0.13,0.19-0.15,0.42-0.07,0.63l1.18,2.99h-10.65l-1.91-3.23h2.72
		v-1.36h-3.18h-2.9v1.36h1.78l2.32,3.92l-5.6,9.78c-0.12,0.21-0.12,0.47,0,0.68c0.12,0.21,0.35,0.34,0.59,0.34h5.36
		c-0.09,0.71-0.32,1.4-0.69,2.03c-0.72,1.25-1.89,2.14-3.29,2.51c-1.4,0.37-2.85,0.18-4.1-0.55c-1.25-0.72-2.14-1.89-2.51-3.29
		c-0.37-1.4-0.18-2.85,0.55-4.1c0.96-1.66,2.76-2.69,4.68-2.69c0.01,0,0.02,0,0.03,0l0.01-1.36c-0.01,0-0.02,0-0.03,0
		c-2.41,0-4.65,1.29-5.86,3.37c-0.91,1.56-1.15,3.39-0.69,5.13c0.46,1.75,1.58,3.21,3.14,4.11c1.07,0.62,2.23,0.91,3.38,0.91
		c2.33,0,4.61-1.21,5.86-3.37c0.49-0.85,0.79-1.77,0.88-2.71h4.82v-0.68l0.01,0l0.01,0.68c0.24,0,0.47-0.13,0.59-0.34l5.4-9.31
		l3.63,9.21l1.27-0.5l-1.96-4.98c2.61-0.66,5.36,0.7,6.37,3.27c0.52,1.34,0.49,2.81-0.09,4.14c-0.58,1.32-1.64,2.34-2.99,2.86
		c-1.34,0.52-2.81,0.49-4.14-0.09c-1.32-0.58-2.34-1.64-2.86-2.99c-0.7-1.8-0.38-3.85,0.83-5.36l-1.06-0.85
		c-1.52,1.89-1.92,4.45-1.04,6.71c0.66,1.68,1.93,3.01,3.58,3.74c0.87,0.38,1.79,0.57,2.72,0.57c0.83,0,1.66-0.15,2.46-0.47
		c1.68-0.66,3.01-1.93,3.74-3.58C1050.96,96.65,1050.99,94.81,1050.34,93.13z M1023.39,94.91l2.08-3.63
		c0.96,0.72,1.66,1.74,1.97,2.93c0.06,0.23,0.1,0.47,0.13,0.71H1023.39z M1028.95,94.91c-0.04-0.35-0.1-0.71-0.19-1.06
		c-0.41-1.54-1.32-2.85-2.61-3.77l1.84-3.22l4.6,8.05H1028.95z M1033.78,94.24l-4.63-8.1h9.34L1033.78,94.24z"/>
	<path class="st0" d="M1175.3,119.27c-1.27-3.27-4.83-4.99-8.14-4.05l-2.7-6.86h4.53c0.54,0,0.98,0.44,0.98,0.98
		c0,0.54-0.44,0.98-0.98,0.98c-0.38,0-0.68,0.3-0.68,0.68c0,0.38,0.3,0.68,0.68,0.68c1.29,0,2.34-1.05,2.34-2.34
		c0-1.29-1.05-2.34-2.34-2.34h-5.53c-0.23,0-0.44,0.11-0.56,0.3c-0.13,0.19-0.15,0.42-0.07,0.63l1.18,2.99h-10.65l-1.91-3.23h2.72
		v-1.36h-3.18h-2.9v1.36h1.78l2.32,3.92l-5.6,9.78c-0.12,0.21-0.12,0.47,0,0.68c0.12,0.21,0.35,0.34,0.59,0.34h5.36
		c-0.09,0.71-0.32,1.4-0.69,2.03c-0.72,1.25-1.89,2.14-3.29,2.51c-1.4,0.37-2.85,0.18-4.1-0.55c-1.25-0.72-2.14-1.89-2.51-3.29
		c-0.37-1.4-0.18-2.85,0.55-4.1c0.96-1.66,2.76-2.69,4.68-2.69c0.01,0,0.02,0,0.03,0l0.01-1.36c-0.01,0-0.02,0-0.03,0
		c-2.41,0-4.65,1.29-5.86,3.37c-0.91,1.56-1.15,3.39-0.69,5.13c0.46,1.75,1.58,3.21,3.14,4.11c1.07,0.62,2.23,0.91,3.38,0.91
		c2.33,0,4.61-1.21,5.86-3.37c0.49-0.85,0.79-1.77,0.88-2.71h4.82v-0.68l0.01,0l0.01,0.68c0.24,0,0.47-0.13,0.59-0.34l5.4-9.31
		l3.63,9.21l1.27-0.5l-1.96-4.98c2.61-0.66,5.36,0.7,6.37,3.27c0.52,1.34,0.49,2.81-0.09,4.14c-0.58,1.32-1.64,2.34-2.99,2.86
		c-1.34,0.52-2.81,0.49-4.14-0.09c-1.32-0.58-2.34-1.64-2.86-2.99c-0.7-1.8-0.38-3.85,0.83-5.36l-1.06-0.85
		c-1.52,1.89-1.92,4.45-1.04,6.71c0.66,1.68,1.93,3.01,3.58,3.74c0.87,0.38,1.79,0.57,2.72,0.57c0.83,0,1.66-0.15,2.46-0.47
		c1.68-0.66,3.01-1.93,3.74-3.58C1175.91,122.79,1175.95,120.95,1175.3,119.27z M1148.35,121.05l2.08-3.63
		c0.96,0.72,1.66,1.74,1.97,2.93c0.06,0.23,0.1,0.47,0.13,0.71H1148.35z M1153.91,121.05c-0.04-0.35-0.1-0.71-0.19-1.06
		c-0.41-1.54-1.32-2.85-2.61-3.77l1.84-3.22l4.6,8.05H1153.91z M1158.74,120.38l-4.63-8.1h9.34L1158.74,120.38z"/>
	<path class="st0" d="M676.57,109.78c-2.21-0.55-6.98-1.4-8.24-1.63c-1.44-1.41-9.2-8.7-16.06-8.7c-1.18,0-3.25,0.08-5.25,0.16
		c-1.88,0.07-3.66,0.14-4.59,0.14c-5.81,0-9.62,4.58-11.45,6.78c-0.24,0.29-0.51,0.62-0.68,0.8c-1.38,0.02-4.56,0.14-4.71,0.15
		l-0.59,0.02l-0.25,0.54c-0.05,0.11-1.3,2.81-1.3,6.47c0,3.58,0,9,4.86,9h2.73c0.48,2.54,2.71,4.47,5.38,4.47
		c2.74,0,5.02-2.03,5.41-4.67v0.2h20.39c0.48,2.54,2.71,4.47,5.38,4.47c2.69,0,4.93-1.95,5.39-4.51c0.96-0.04,2.69-0.11,4.72-0.11
		c3.62,0,3.91-1.62,4.34-4.08c0.1-0.58,0.22-1.23,0.39-1.98l0.02-0.11v-0.11C682.46,113.6,679.41,110.49,676.57,109.78z
		 M666.13,108.36h-16.05v-6.2h7.12L666.13,108.36z M646.31,108.36h-8.02v-6.2h8.02V108.36z"/>
	<path class="st0" d="M1071.87,98.17l-0.04,0.1l-0.02,0.11c-0.11,0.76-0.24,1.41-0.36,1.98c-0.49,2.44-0.82,4.06,2.55,5.38
		c1.89,0.74,3.47,1.43,4.35,1.83c-0.51,2.55,0.86,5.18,3.36,6.17c2.49,0.98,5.27,0,6.64-2.19l18.98,7.46l0.07-0.19
		c-0.6,2.6,0.77,5.32,3.33,6.32c2.49,0.98,5.27,0,6.64-2.19l2.54,1c4.52,1.78,6.5-3.26,7.81-6.6c1.34-3.4,1.16-6.37,1.15-6.5
		l-0.04-0.59l-0.54-0.24c-0.13-0.06-3.05-1.34-4.33-1.86c-0.09-0.23-0.22-0.63-0.34-0.99c-0.9-2.72-2.77-8.37-8.18-10.5
		c-0.87-0.34-2.5-1.06-4.22-1.81c-1.83-0.81-3.73-1.64-4.83-2.07c-6.39-2.51-16.27,1.43-18.13,2.22c-1.26-0.26-6.01-1.21-8.27-1.5
		C1077.12,93.15,1073.15,94.92,1071.87,98.17z M1101.01,93.59l6.62,2.6l-2.27,5.77l-14.93-5.87L1101.01,93.59z M1109.66,96.99
		l7.47,2.94l-2.27,5.77l-7.47-2.94L1109.66,96.99z"/>
	<path class="st0" d="M181.2,91.04l-55.04-20.34c-3.7-1.37-7.81,0.48-9.26,4.13l-0.01,0L116.84,75l-3.43,9.27l-4.35,11.77
		c-0.58,1.56,0.22,3.29,1.78,3.87l9.12,3.37c0.23,2.7,1.97,5.15,4.68,6.15c2.7,1,5.62,0.26,7.55-1.63l22.43,8.29
		c0.23,2.7,1.97,5.15,4.68,6.15s5.62,0.26,7.55-1.63l6.23,2.3c1.56,0.58,3.29-0.22,3.87-1.78l7.78-21.05
		C186.22,96.08,184.77,92.36,181.2,91.04z M125.34,72.93l55.04,20.34c2.26,0.83,2.77,2.82,2.48,4.66l-63.13-23.33
		C120.99,72.91,123.26,72.17,125.34,72.93z M161.97,92.75l-2.44,6.61l-6.94-2.56l2.44-6.61L161.97,92.75z M152.8,89.36l-2.44,6.61
		l-6.94-2.56l2.44-6.61L152.8,89.36z M143.63,85.98l-2.44,6.61l-6.94-2.56l2.44-6.61L143.63,85.98z M134.47,82.59l-2.44,6.61
		l-6.94-2.56l2.44-6.61L134.47,82.59z M178.06,111.31c-2.97-2.17-6.56-5.07-7.59-6.54l0.03-0.09l2.85-7.72l8.8,3.25L178.06,111.31z"
		/>
	<path class="st0" d="M935.11,92.81h-58.68c-3.94,0-7.16,3.16-7.25,7.08h-0.01v0.18v9.88v12.55c0,1.66,1.35,3.01,3.01,3.01h9.73
		c1.15,2.45,3.64,4.15,6.52,4.15s5.37-1.7,6.52-4.15h23.92c1.15,2.45,3.64,4.15,6.52,4.15s5.37-1.7,6.52-4.15h6.65
		c1.66,0,3.01-1.35,3.01-3.01v-22.44C941.57,95.8,938.91,92.81,935.11,92.81z M876.44,95.19h58.68c2.41,0,3.57,1.69,3.94,3.52h-67.3
		C872.34,96.68,874.22,95.19,876.44,95.19z M917.66,101.08v7.04h-7.4v-7.04H917.66z M907.89,101.08v7.04h-7.4v-7.04H907.89z
		 M898.12,101.08v7.04h-7.4v-7.04H898.12z M888.35,101.08v7.04h-7.4v-7.04H888.35z M939.19,112.92c-3.54-1-7.91-2.48-9.39-3.51v-0.1
		v-8.23h9.39V112.92z"/>
	<path class="st0" d="M1123.38,127.84c-23.67-4.41-60.2-27.75-91.48-27.75c-38.85,0-65.3,21.39-87.07,27.75
		C928.18,132.7,1140.43,131.01,1123.38,127.84z"/>
	<path class="st0" d="M98.8,93.85c-1.27-3.27-4.83-4.99-8.14-4.05l-2.7-6.86h4.53c0.54,0,0.98,0.44,0.98,0.98
		c0,0.54-0.44,0.98-0.98,0.98c-0.38,0-0.68,0.3-0.68,0.68c0,0.38,0.3,0.68,0.68,0.68c1.29,0,2.34-1.05,2.34-2.34
		c0-1.29-1.05-2.34-2.34-2.34h-5.53c-0.23,0-0.44,0.11-0.56,0.3c-0.13,0.19-0.15,0.42-0.07,0.63l1.18,2.99H76.86l-1.91-3.23h2.72
		V80.9h-3.18h-2.9v1.36h1.78l2.32,3.92l-5.6,9.78c-0.12,0.21-0.12,0.47,0,0.68c0.12,0.21,0.35,0.34,0.59,0.34h5.36
		c-0.09,0.71-0.32,1.4-0.69,2.03c-0.72,1.25-1.89,2.14-3.29,2.51c-1.4,0.37-2.85,0.18-4.1-0.55c-1.25-0.72-2.14-1.89-2.51-3.29
		c-0.37-1.4-0.18-2.85,0.55-4.1c0.96-1.66,2.76-2.69,4.68-2.69c0.01,0,0.02,0,0.03,0l0.01-1.36c-0.01,0-0.02,0-0.03,0
		c-2.41,0-4.65,1.29-5.86,3.37c-0.91,1.56-1.15,3.39-0.69,5.13c0.46,1.75,1.58,3.21,3.14,4.11c1.07,0.62,2.23,0.91,3.38,0.91
		c2.33,0,4.61-1.21,5.86-3.37c0.49-0.85,0.79-1.77,0.88-2.71h4.82V96.3l0.01,0l0.01,0.68c0.24,0,0.47-0.13,0.59-0.34l5.4-9.31
		l3.63,9.21l1.27-0.5l-1.96-4.98c2.61-0.66,5.36,0.7,6.37,3.27c0.52,1.34,0.49,2.81-0.09,4.14c-0.58,1.32-1.64,2.34-2.99,2.86
		c-1.34,0.52-2.81,0.49-4.14-0.09c-1.32-0.58-2.34-1.64-2.86-2.99c-0.7-1.8-0.38-3.85,0.83-5.36l-1.06-0.85
		c-1.52,1.89-1.92,4.45-1.04,6.71c0.66,1.68,1.93,3.01,3.58,3.74c0.87,0.38,1.79,0.57,2.72,0.57c0.83,0,1.66-0.15,2.46-0.47
		c1.68-0.66,3.01-1.93,3.74-3.58C99.42,97.37,99.46,95.53,98.8,93.85z M71.85,95.62l2.08-3.63c0.96,0.72,1.66,1.74,1.97,2.93
		c0.06,0.23,0.1,0.47,0.13,0.71H71.85z M77.41,95.62c-0.04-0.35-0.1-0.71-0.19-1.06c-0.41-1.54-1.32-2.85-2.61-3.77l1.84-3.22
		l4.6,8.05H77.41z M82.24,94.95l-4.63-8.1h9.34L82.24,94.95z"/>
	<path class="st0" d="M330.36,111.1c-2.21-0.52-7-1.31-8.26-1.51c-1.46-1.39-9.32-8.57-16.18-8.47c-1.18,0.02-3.25,0.13-5.25,0.23
		c-1.88,0.1-3.65,0.19-4.59,0.21c-5.81,0.08-9.56,4.71-11.36,6.93c-0.24,0.3-0.51,0.62-0.67,0.8c-1.38,0.04-4.56,0.21-4.7,0.21
		l-0.59,0.03l-0.24,0.54c-0.05,0.11-1.26,2.83-1.21,6.49c0.05,3.58,0.12,9,4.98,8.93l2.73-0.04c0.51,2.53,2.77,4.43,5.44,4.39
		c2.74-0.04,4.99-2.1,5.35-4.74l0,0.2l20.39-0.28c0.51,2.53,2.77,4.43,5.44,4.39c2.69-0.04,4.9-2.02,5.33-4.58
		c0.96-0.06,2.68-0.14,4.71-0.17c3.62-0.05,3.88-1.68,4.29-4.14c0.09-0.58,0.2-1.23,0.36-1.98l0.02-0.11l0-0.11
		C336.3,114.84,333.21,111.77,330.36,111.1z M319.72,109.83l-16.04,0.22l-0.09-6.2l7.12-0.1L319.72,109.83z M301.49,110.08
		l-8.02,0.11l-0.09-6.2l8.02-0.11L301.49,110.08z"/>
	<path class="st0" d="M179.48,127.84c-23.67-4.41-60.2-27.75-91.48-27.75c-38.85,0-65.3,21.39-87.07,27.75
		C-15.72,132.7,196.53,131.01,179.48,127.84z"/>
	<polygon class="st0" points="381.17,97.58 344.1,97.58 362.64,83.29 	"/>
	<rect x="532.8" y="97.48" class="st0" width="31.36" height="31.36"/>
	<polygon class="st0" points="567.01,97.58 529.94,97.58 548.48,83.29 	"/>
	<rect x="1187.81" y="97.48" class="st0" width="31.36" height="31.36"/>
	<polygon class="st0" points="1222.02,97.58 1184.95,97.58 1203.49,83.29 	"/>
	<rect x="1230.25" y="80.19" class="st0" width="31.36" height="48.65"/>
	<polygon class="st0" points="1264.47,81.1 1227.4,81.1 1245.93,66.81 	"/>
	<polygon class="st0" points="428.4,106.11 382.25,106.11 405.32,90.44 	"/>
</g>
</svg>
