<?xml version="1.0" encoding="utf-8"?>
<!-- Generator: Adobe Illustrator 24.0.3, SVG Export Plug-In . SVG Version: 6.00 Build 0)  -->
<svg version="1.1" id="Layer_1" xmlns="http://www.w3.org/2000/svg" xmlns:xlink="http://www.w3.org/1999/xlink" x="0px" y="0px"
	 viewBox="0 0 1294.43 180.93" style="enable-background:new 0 0 1294.43 180.93;" xml:space="preserve">
<style type="text/css">
	.st0{fill:#F2F2F2;}
	.st1{fill:#FFFFFF;}
</style>
<path class="st0" d="M1294.43,45.51c0,0-116.2,129.86-292.49,129.86S740.12,45.51,647.22,45.51S447.27,170.66,299.68,170.66
	S0,45.51,0,45.51V0h1294.43V45.51z"/>
<g>
	<g>
		<path class="st1" d="M285.09,85.85c-0.07-8.13-0.12-16.33-0.93-24.41c-0.17-1.7-2-1.73-2.15,0c-0.71,8.09-0.66,16.28-0.62,24.41
			c0.03,7.55-2.11,78.36-1.13,85.82c0.26,1.96,7.31,1.8,7.54-0.19C288.68,164,285.15,93.4,285.09,85.85z"/>
		<path class="st1" d="M286.77,56.8c-1.15,0.35-2.31,1.13-2.52,2.31c7.98,4.51,14,11.83,21.66,16.86c0.18-0.93-0.62-3-1.5-4.35
			c-2.8-4.32-4.14-7.21-6.79-10.39C294.97,58.04,290.73,55.61,286.77,56.8z"/>
		<path class="st1" d="M280.85,60.6c0.46-1.11,0.59-2.5-0.2-3.41c-8.53,3.34-18.02,3.39-26.75,6.16c0.6,0.72,2.72,1.41,4.32,1.58
			c5.12,0.56,8.2,1.34,12.35,1.29C274.71,66.17,279.27,64.43,280.85,60.6z"/>
		<path class="st1" d="M281.65,55c0.98,0.69,2.31,1.12,3.37,0.55c-1.38-9.06,0.66-18.32-0.12-27.45c-0.84,0.43-1.97,2.34-2.5,3.87
			c-1.67,4.87-3.12,7.71-3.98,11.76C277.57,47.78,278.26,52.62,281.65,55z"/>
	</g>
	<g>
		<path class="st1" d="M228.71,99.75c-0.05-5.99-0.09-12.03-0.68-17.99c-0.13-1.26-1.48-1.27-1.59,0c-0.52,5.96-0.49,12-0.46,17.99
			c0.02,5.57-1.55,57.75-0.83,63.25c0.19,1.44,5.38,1.32,5.56-0.14C231.36,157.35,228.76,105.32,228.71,99.75z"/>
		<path class="st1" d="M229.95,78.34c-0.85,0.25-1.7,0.83-1.85,1.7c5.88,3.32,10.32,8.72,15.97,12.43c0.13-0.68-0.46-2.21-1.11-3.21
			c-2.06-3.19-3.05-5.31-5.01-7.66C235.99,79.26,232.87,77.46,229.95,78.34z"/>
		<path class="st1" d="M225.59,81.14c0.34-0.82,0.43-1.85-0.15-2.51c-6.29,2.46-13.28,2.5-19.72,4.54c0.45,0.53,2,1.04,3.19,1.17
			c3.77,0.41,6.05,0.99,9.1,0.95C221.06,85.25,224.42,83.96,225.59,81.14z"/>
		<path class="st1" d="M226.18,77.02c0.72,0.51,1.7,0.83,2.48,0.41c-1.02-6.68,0.48-13.5-0.09-20.23c-0.62,0.32-1.45,1.72-1.84,2.85
			c-1.23,3.59-2.3,5.68-2.93,8.67C223.17,71.7,223.68,75.26,226.18,77.02z"/>
	</g>
	<g>
		<path class="st1" d="M343.01,72.96c-0.07-8.03-0.11-16.12-0.91-24.09c-0.17-1.68-1.98-1.7-2.13,0c-0.7,7.98-0.65,16.07-0.62,24.09
			c0.03,7.45-2.08,87.46-1.11,94.82c0.25,1.93,7.21,1.77,7.44-0.19C346.55,160.22,343.07,80.42,343.01,72.96z"/>
		<path class="st1" d="M344.66,44.29c-1.13,0.34-2.28,1.11-2.48,2.28c7.87,4.45,13.82,11.68,21.38,16.64
			c0.18-0.91-0.61-2.96-1.48-4.3c-2.76-4.27-4.08-7.12-6.7-10.25C352.76,45.53,348.58,43.12,344.66,44.29z"/>
		<path class="st1" d="M338.83,48.05c0.45-1.09,0.58-2.47-0.2-3.36c-8.42,3.3-17.78,3.35-26.4,6.08c0.6,0.71,2.68,1.39,4.27,1.56
			c5.05,0.55,8.1,1.33,12.18,1.27C332.76,53.55,337.27,51.83,338.83,48.05z"/>
		<path class="st1" d="M339.61,42.52c0.97,0.68,2.28,1.11,3.33,0.55c-1.36-8.94,0.65-18.08-0.11-27.09
			c-0.83,0.43-1.95,2.31-2.46,3.82c-1.65,4.81-3.08,7.61-3.93,11.61C335.58,35.4,336.27,40.17,339.61,42.52z"/>
	</g>
</g>
<g>
	<g>
		<path class="st1" d="M1012.01,93.73c-0.07-8.13-0.12-16.33-0.93-24.41c-0.17-1.7-2-1.73-2.15,0c-0.71,8.09-0.66,16.28-0.62,24.41
			c0.03,7.55-2.11,78.36-1.13,85.82c0.26,1.96,7.31,1.8,7.54-0.19C1015.6,171.88,1012.07,101.28,1012.01,93.73z"/>
		<path class="st1" d="M1013.69,64.68c-1.15,0.35-2.31,1.13-2.52,2.31c7.98,4.51,14,11.83,21.66,16.86c0.18-0.93-0.62-3-1.5-4.35
			c-2.8-4.32-4.14-7.21-6.79-10.39C1021.89,65.92,1017.65,63.49,1013.69,64.68z"/>
		<path class="st1" d="M1007.77,68.48c0.46-1.11,0.59-2.5-0.2-3.41c-8.53,3.34-18.02,3.39-26.75,6.16c0.6,0.72,2.72,1.41,4.32,1.58
			c5.12,0.56,8.2,1.34,12.35,1.29C1001.63,74.05,1006.19,72.31,1007.77,68.48z"/>
		<path class="st1" d="M1008.57,62.88c0.98,0.69,2.31,1.12,3.37,0.55c-1.38-9.06,0.66-18.32-0.12-27.45
			c-0.84,0.43-1.97,2.34-2.5,3.87c-1.67,4.87-3.12,7.71-3.98,11.76C1004.49,55.66,1005.18,60.5,1008.57,62.88z"/>
	</g>
	<g>
		<path class="st1" d="M955.63,116.67c-0.05-5.99-0.09-12.03-0.68-17.99c-0.13-1.26-1.48-1.27-1.59,0c-0.52,5.96-0.49,12-0.46,17.99
			c0.02,5.57-1.55,57.75-0.83,63.25c0.19,1.44,5.38,1.32,5.56-0.14C958.28,174.26,955.68,122.23,955.63,116.67z"/>
		<path class="st1" d="M956.87,95.26c-0.85,0.25-1.7,0.83-1.85,1.7c5.88,3.32,10.32,8.72,15.97,12.43c0.13-0.68-0.46-2.21-1.11-3.21
			c-2.06-3.19-3.05-5.31-5.01-7.66C962.91,96.18,959.79,94.38,956.87,95.26z"/>
		<path class="st1" d="M952.51,98.06c0.34-0.82,0.43-1.85-0.15-2.51c-6.29,2.46-13.28,2.5-19.72,4.54c0.45,0.53,2,1.04,3.19,1.17
			c3.77,0.41,6.05,0.99,9.1,0.95C947.98,102.17,951.34,100.88,952.51,98.06z"/>
		<path class="st1" d="M953.1,93.93c0.72,0.51,1.7,0.83,2.48,0.41c-1.02-6.68,0.48-13.5-0.09-20.23c-0.62,0.32-1.45,1.72-1.84,2.85
			c-1.23,3.59-2.3,5.68-2.93,8.67S950.6,92.17,953.1,93.93z"/>
	</g>
	<g>
		<path class="st1" d="M1069.93,80.84c-0.07-8.03-0.11-16.12-0.91-24.09c-0.17-1.68-1.98-1.7-2.13,0
			c-0.7,7.98-0.65,16.07-0.62,24.09c0.03,7.45-2.08,87.46-1.11,94.82c0.25,1.93,7.21,1.77,7.44-0.19
			C1073.47,168.1,1069.99,88.3,1069.93,80.84z"/>
		<path class="st1" d="M1071.58,52.17c-1.13,0.34-2.28,1.11-2.48,2.28c7.87,4.45,13.82,11.68,21.38,16.64
			c0.18-0.91-0.61-2.96-1.48-4.3c-2.76-4.27-4.08-7.12-6.7-10.25C1079.68,53.41,1075.5,51,1071.58,52.17z"/>
		<path class="st1" d="M1065.75,55.93c0.45-1.09,0.58-2.47-0.2-3.36c-8.42,3.3-17.78,3.35-26.4,6.08c0.6,0.71,2.68,1.39,4.27,1.56
			c5.05,0.55,8.1,1.33,12.18,1.27C1059.68,61.43,1064.19,59.71,1065.75,55.93z"/>
		<path class="st1" d="M1066.53,50.4c0.97,0.68,2.28,1.11,3.33,0.55c-1.36-8.94,0.65-18.08-0.11-27.09
			c-0.83,0.43-1.95,2.31-2.46,3.82c-1.65,4.81-3.08,7.61-3.93,11.61C1062.5,43.28,1063.19,48.05,1066.53,50.4z"/>
	</g>
</g>
<g>
	<g>
		<g>
			
				<rect x="397.64" y="89.95" transform="matrix(0.2514 -0.9679 0.9679 0.2514 203.7872 458.383)" class="st1" width="1.18" height="14.99"/>
			<path class="st1" d="M399.07,98.27c-0.01,0.03-0.01,0.07-0.02,0.1c-0.37,1.44-1.84,2.3-3.28,1.92l-3.05-0.79
				c-1.44-0.37-2.3-1.84-1.93-3.28c0.01-0.03,0.02-0.06,0.03-0.1L399.07,98.27z"/>
		</g>
		<g>
			
				<rect x="405.74" y="96.86" transform="matrix(0.9679 -0.2514 0.2514 0.9679 -11.2255 107.0344)" class="st1" width="14.99" height="1.18"/>
			<path class="st1" d="M412.4,98.27c0.01,0.03,0.01,0.07,0.02,0.1c0.37,1.44,1.84,2.3,3.28,1.92l3.05-0.79
				c1.44-0.37,2.3-1.84,1.92-3.28c-0.01-0.03-0.02-0.06-0.03-0.1L412.4,98.27z"/>
		</g>
	</g>
	<rect x="403.24" y="138.6" class="st1" width="5" height="12"/>
	<rect x="404.73" y="93.22" class="st1" width="2.02" height="44.55"/>
	<rect x="403.24" y="136.83" class="st1" width="5" height="1.89"/>
	<rect x="403.79" y="109.44" class="st1" width="3.9" height="1.89"/>
	<path class="st1" d="M408.67,149.59h-5.87c-1.12,0-2.02,0.91-2.02,2.02h9.92C410.7,150.49,409.79,149.59,408.67,149.59z"/>
	<path class="st1" d="M403.29,94.44h4.9c0.67,0,1.22-0.55,1.22-1.22h-7.34C402.07,93.89,402.61,94.44,403.29,94.44z"/>
</g>
<g>
	<g>
		<g>
			
				<rect x="861.52" y="89.95" transform="matrix(0.2514 -0.9679 0.9679 0.2514 551.0251 907.3529)" class="st1" width="1.18" height="14.99"/>
			<path class="st1" d="M862.94,98.27c-0.01,0.03-0.01,0.07-0.02,0.1c-0.37,1.44-1.84,2.3-3.28,1.92l-3.05-0.79
				c-1.44-0.37-2.3-1.84-1.93-3.28c0.01-0.03,0.02-0.06,0.03-0.1L862.94,98.27z"/>
		</g>
		<g>
			
				<rect x="869.62" y="96.86" transform="matrix(0.9679 -0.2514 0.2514 0.9679 3.6769 223.6685)" class="st1" width="14.99" height="1.18"/>
			<path class="st1" d="M876.28,98.27c0.01,0.03,0.01,0.07,0.02,0.1c0.37,1.44,1.84,2.3,3.28,1.92l3.05-0.79
				c1.44-0.37,2.3-1.84,1.92-3.28c-0.01-0.03-0.02-0.06-0.03-0.1L876.28,98.27z"/>
		</g>
	</g>
	<rect x="867.11" y="138.6" class="st1" width="5" height="12"/>
	<rect x="868.6" y="93.22" class="st1" width="2.02" height="44.55"/>
	<rect x="867.11" y="136.83" class="st1" width="5" height="1.89"/>
	<rect x="867.66" y="109.44" class="st1" width="3.9" height="1.89"/>
	<path class="st1" d="M872.55,149.59h-5.87c-1.12,0-2.02,0.91-2.02,2.02h9.92C874.57,150.49,873.66,149.59,872.55,149.59z"/>
	<path class="st1" d="M867.16,94.44h4.9c0.67,0,1.22-0.55,1.22-1.22h-7.34C865.94,93.89,866.49,94.44,867.16,94.44z"/>
</g>
</svg>
