<?xml version="1.0" encoding="utf-8"?>
<!-- Generator: Adobe Illustrator 24.0.3, SVG Export Plug-In . SVG Version: 6.00 Build 0)  -->
<svg version="1.1" id="Layer_1" xmlns="http://www.w3.org/2000/svg" xmlns:xlink="http://www.w3.org/1999/xlink" x="0px" y="0px"
	 viewBox="0 0 31.39 31.39" style="enable-background:new 0 0 31.39 31.39;" xml:space="preserve">
<style type="text/css">
	.st0{fill:#F8981D;}
</style>
<g>
	<path class="st0" d="M15.65,31.39C6.94,31.37-0.02,24.36,0,15.61C0.02,6.92,7.07-0.04,15.83,0c8.64,0.03,15.59,7.09,15.56,15.78
		C31.36,24.44,24.33,31.42,15.65,31.39z M13.15,25.99c1.39,0,2.68,0,4.1,0c0-3.37,0-6.69,0-10.09c1,0,1.86,0,2.77,0
		c0.09-1.15,0.18-2.22,0.28-3.38c-1.08,0-2.04,0-3.08,0c0-0.74,0-1.39,0-2.03c-0.01-0.66,0.3-0.97,0.97-0.96
		c0.68,0.02,1.35,0,2.03,0c0-1.25,0-2.38,0-3.52c-1.21,0-2.33-0.06-3.45,0.01c-2.43,0.16-3.6,1.43-3.62,3.86
		c-0.01,0.86,0,1.72,0,2.69c-0.77,0-1.4,0-2.02,0c0,1.19,0,2.26,0,3.41c0.69,0,1.3,0,2.01,0C13.15,19.37,13.15,22.66,13.15,25.99z"
		/>
</g>
</svg>
