<?xml version="1.0" encoding="utf-8"?>
<!-- Generator: Adobe Illustrator 24.0.3, SVG Export Plug-In . SVG Version: 6.00 Build 0)  -->
<svg version="1.1" id="Layer_1" xmlns="http://www.w3.org/2000/svg" xmlns:xlink="http://www.w3.org/1999/xlink" x="0px" y="0px"
	 viewBox="0 0 142.18 148.37" style="enable-background:new 0 0 142.18 148.37;" xml:space="preserve">
<style type="text/css">
	.st0{fill:none;stroke:#FFFFFF;stroke-width:2;stroke-miterlimit:10;}
	.st1{fill:#FFFFFF;}
	.st2{font-family:'OpenSans-Semibold';}
	.st3{font-size:15px;}
</style>
<g>
	<rect x="1" y="1" class="st0" width="140.18" height="146.37"/>
	<g>
		<text transform="matrix(1.0198 0 0 1 24.6181 116.0042)" class="st1 st2 st3">TRANSPORTE</text>
	</g>
	<path class="st1" d="M107.71,34.45l-70.68-0.33c-4.75-0.02-8.64,3.77-8.78,8.49l-0.01,0l0,0.22l-0.06,11.91l-0.07,15.12
		c-0.01,2,1.61,3.63,3.61,3.64l11.72,0.05c1.38,2.96,4.36,5.02,7.83,5.04c3.47,0.02,6.47-2.02,7.88-4.96l28.81,0.13
		c1.38,2.96,4.36,5.02,7.83,5.04s6.47-2.02,7.88-4.96l8.01,0.04c2,0.01,3.63-1.61,3.64-3.61l0.13-27.03
		C115.46,38.09,112.29,34.47,107.71,34.45z M37.01,36.98l70.68,0.33c2.9,0.01,4.29,2.05,4.73,4.26L31.35,41.2
		C32.07,38.75,34.34,36.97,37.01,36.98z M86.64,44.32L86.6,52.8l-8.91-0.04l0.04-8.48L86.64,44.32z M74.87,44.26l-0.04,8.48
		l-8.91-0.04l0.04-8.48L74.87,44.26z M63.09,44.21l-0.04,8.48l-8.91-0.04l0.04-8.48L63.09,44.21z M51.32,44.15l-0.04,8.48
		l-8.91-0.04l0.04-8.48L51.32,44.15z M112.51,58.69c-4.25-1.23-9.51-3.04-11.29-4.28l0-0.12l0.05-9.91l11.31,0.05L112.51,58.69z"/>
</g>
</svg>
