<?xml version="1.0" encoding="utf-8"?>
<!-- Generator: Adobe Illustrator 24.0.3, SVG Export Plug-In . SVG Version: 6.00 Build 0)  -->
<svg version="1.1" id="Layer_1" xmlns="http://www.w3.org/2000/svg" xmlns:xlink="http://www.w3.org/1999/xlink" x="0px" y="0px"
	 viewBox="0 0 142.18 148.37" style="enable-background:new 0 0 142.18 148.37;" xml:space="preserve">
<style type="text/css">
	.st0{fill:none;stroke:#FFFFFF;stroke-width:2;stroke-miterlimit:10;}
	.st1{fill:#FFFFFF;}
	.st2{font-family:'OpenSans-Semibold';}
	.st3{font-size:15px;}
</style>
<g>
	<rect x="1" y="1" class="st0" width="140.18" height="146.37"/>
	<g>
		<text transform="matrix(1.0198 0 0 1 46.3673 116.0041)" class="st1 st2 st3">SALUD</text>
	</g>
	<g>
		<g>
			<path class="st1" d="M112.11,56.9c-0.61-4.2-3.91-7.5-8.11-8.11V46.3c0-6.86-5.22-12.45-11.63-12.45
				c-6.23,0-11.44,5.42-11.63,12.07h0.08l-0.08,0.01V72.9c0,8.62-6.44,15.61-14.36,15.61S52.03,81.51,52.03,72.9v-2.33
				c1.98,0,4.1-1.44,4.1-5.47v-3.44c8.78-2.24,15.05-9.78,15.05-18.33v-2.85h-2.74l-0.06-17.8c-0.02-3.3-2.38-6.11-5.63-6.7
				c-0.7-2.14-3-3.31-5.15-2.61c-2.14,0.7-3.31,3-2.61,5.15c0.7,2.14,3,3.31,5.15,2.61c1.15-0.37,2.07-1.24,2.52-2.36
				c1.75,0.5,2.97,2.09,2.98,3.91l0.06,17.79h-2.74v2.89c-0.11,4.76-3.3,8.89-7.87,10.2c-2.45,0.78-5.08,0.78-7.52,0
				c-4.57-1.32-7.75-5.45-7.86-10.2v-2.89h-4.1V22.69c0.01-1.85,1.25-3.46,3.04-3.94c0.83,2.12,3.23,3.16,5.34,2.33
				s3.16-3.23,2.33-5.34s-3.23-3.16-5.34-2.33c-1.15,0.45-2.03,1.39-2.41,2.57c-3.28,0.56-5.68,3.4-5.69,6.72v17.78h-2.74v2.84
				c0,8.56,6.27,16.1,15.05,18.33v3.44c0,4.03,2.12,5.47,4.1,5.47v2.33c0,10.12,7.67,18.35,17.1,18.35s17.1-8.24,17.1-18.35V46.01
				c0.14-5.19,4.13-9.41,8.89-9.41c4.9,0,8.89,4.35,8.89,9.71v2.48c-5.23,0.76-8.86,5.61-8.11,10.84c0.76,5.23,5.61,8.86,10.84,8.11
				C109.23,66.99,112.86,62.13,112.11,56.9z M58.86,18.59c-0.76,0-1.37-0.61-1.37-1.37s0.61-1.37,1.37-1.37s1.37,0.61,1.37,1.37
				S59.62,18.59,58.86,18.59z M42.45,15.86c0.76,0,1.37,0.61,1.37,1.37s-0.61,1.37-1.37,1.37s-1.37-0.61-1.37-1.37
				S41.7,15.86,42.45,15.86z M32.88,43.32v-0.11h4.1v0.16c0.1,5.94,4.06,11.13,9.76,12.81c2.99,0.95,6.2,0.95,9.19,0
				c5.71-1.67,9.67-6.86,9.77-12.81v-0.16h2.74v0.11c0,7.61-5.86,14.3-13.95,15.92c-1.9,0.38-3.84,0.48-5.77,0.28
				c-0.63-0.06-1.26-0.16-1.89-0.29C38.74,57.62,32.88,50.93,32.88,43.32z M49.29,67.83c-1.23,0-1.37-1.91-1.37-2.74v-2.9
				c0.11,0.01,0.22,0.02,0.33,0.03c0.14,0.02,0.27,0.03,0.41,0.04c0.65,0.06,1.3,0.1,1.96,0.1h0.07c0.66,0,1.31-0.04,1.95-0.1
				c0.14-0.01,0.28-0.02,0.42-0.04c0.11-0.01,0.22-0.02,0.33-0.03v2.9c0,0.82-0.14,2.74-1.37,2.74H49.29z M102.63,65.09
				c-3.78,0-6.84-3.06-6.84-6.84s3.06-6.84,6.84-6.84s6.84,3.06,6.84,6.84C109.47,62.03,106.41,65.09,102.63,65.09z"/>
		</g>
	</g>
	<g>
		<g>
			<path class="st1" d="M102.63,54.15c-2.27,0-4.1,1.84-4.1,4.1s1.84,4.1,4.1,4.1s4.1-1.84,4.1-4.1S104.9,54.15,102.63,54.15z
				 M102.63,59.62c-0.76,0-1.37-0.61-1.37-1.37s0.61-1.37,1.37-1.37c0.76,0,1.37,0.61,1.37,1.37S103.39,59.62,102.63,59.62z"/>
		</g>
	</g>
</g>
</svg>
