<?xml version="1.0" encoding="utf-8"?>
<!-- Generator: Adobe Illustrator 24.0.3, SVG Export Plug-In . SVG Version: 6.00 Build 0)  -->
<svg version="1.1" id="Layer_1" xmlns="http://www.w3.org/2000/svg" xmlns:xlink="http://www.w3.org/1999/xlink" x="0px" y="0px"
	 viewBox="0 0 142.18 148.37" style="enable-background:new 0 0 142.18 148.37;" xml:space="preserve">
<style type="text/css">
	.st0{fill:none;stroke:#FFFFFF;stroke-width:2;stroke-miterlimit:10;}
	.st1{fill:#FFFFFF;}
	.st2{font-family:'OpenSans-Semibold';}
	.st3{font-size:15px;}
</style>
<g>
	<rect x="1" y="1" class="st0" width="140.18" height="146.37"/>
	<g>
		<text transform="matrix(1.0198 0 0 1 31.3673 116.0042)" class="st1 st2 st3">GOBIERNO</text>
	</g>
	<g>
		<g>
			<path class="st1" d="M109.48,52.61h-3.93v-6.78c0-0.99-0.8-1.79-1.79-1.79H93.18c-1.01-4.74-3.54-9.05-7.22-12.27
				c-3.68-3.22-8.29-5.15-13.14-5.52v-2.1h10.83c0.99,0,1.79-0.8,1.79-1.79v-8.48c0-0.99-0.8-1.79-1.79-1.79H71.03
				c-0.99,0-1.79,0.8-1.79,1.79v4.4v4.08v3.9c-4.81,0.39-9.38,2.31-13.03,5.51c-3.68,3.22-6.21,7.53-7.22,12.27H38.41
				c-0.99,0-1.79,0.8-1.79,1.79v6.78H32.7c-0.99,0-1.79,0.8-1.79,1.79v37.25c0,0.99,0.8,1.79,1.79,1.79h32.56h11.64h32.56
				c0.99,0,1.79-0.8,1.79-1.79V54.39C111.26,53.41,110.46,52.61,109.48,52.61z M72.82,18.28v-2.62h9.04v4.91h-9.04V18.28z
				 M71.09,29.75c8.71,0,16.29,6.01,18.42,14.28H52.67C54.79,35.77,62.38,29.75,71.09,29.75z M40.2,47.61h10.3h41.19h10.3v5H40.2
				V47.61z M75.13,89.86h-8.07V76.48h8.07V89.86z M107.69,89.86H86.27V67.07c0-0.99-0.8-1.79-1.79-1.79c-0.99,0-1.79,0.8-1.79,1.79
				v22.79h-4V74.69c0-0.99-0.8-1.79-1.79-1.79H65.27c-0.99,0-1.79,0.8-1.79,1.79v15.17h-4V67.07c0-0.99-0.8-1.79-1.79-1.79
				s-1.79,0.8-1.79,1.79v22.79H34.49V56.18h3.93h65.35h3.93L107.69,89.86L107.69,89.86z"/>
		</g>
	</g>
</g>
</svg>
