<?xml version="1.0" encoding="utf-8"?>
<!-- Generator: Adobe Illustrator 24.0.3, SVG Export Plug-In . SVG Version: 6.00 Build 0)  -->
<svg version="1.1" id="Layer_1" xmlns="http://www.w3.org/2000/svg" xmlns:xlink="http://www.w3.org/1999/xlink" x="0px" y="0px"
	 viewBox="0 0 142.18 148.37" style="enable-background:new 0 0 142.18 148.37;" xml:space="preserve">
<style type="text/css">
	.st0{fill:none;stroke:#FFFFFF;stroke-width:2;stroke-miterlimit:10;}
	.st1{fill:#FFFFFF;}
	.st2{font-family:'OpenSans-Semibold';}
	.st3{font-size:15px;}
</style>
<g>
	<rect x="1" y="1" class="st0" width="140.18" height="146.37"/>
	<g>
		<g>
			<path class="st1" d="M110.73,29.81c-0.01,0-0.01,0-0.02,0l0,0h-5.42v-1.85c0.03-0.73-0.45-1.39-1.15-1.6
				c-3.76-0.99-7.64-1.48-11.53-1.47c-6.4,0-15.11,1.44-21.55,7.99c-6.4-6.62-15.17-7.99-21.55-7.99
				c-3.89-0.01-7.76,0.48-11.53,1.47c-0.71,0.21-1.18,0.86-1.15,1.6v1.84h-5.39c-0.88,0-1.6,0.72-1.6,1.6v51.07
				c0,0.88,0.72,1.6,1.6,1.6c0.27,0,0.54-0.07,0.78-0.21c0.16-0.08,16.15-8.83,38.47-3.2h0.24h0.14c0.13,0.02,0.26,0.02,0.38,0
				c22.38-5.68,38.37,3.05,38.47,3.2c0.49,0.29,1.1,0.29,1.6,0c0.49-0.28,0.8-0.81,0.8-1.38V31.41
				C112.33,30.53,111.62,29.81,110.73,29.81z M33.04,79.92V33.01h3.82v40.1c-0.01,0.88,0.7,1.61,1.58,1.62c0.09,0,0.17,0,0.26-0.02
				c3.31-0.51,6.65-0.77,9.99-0.8c4.63-0.08,9.25,0.62,13.65,2.06C52.41,74.77,42.32,76.13,33.04,79.92z M48.7,70.73
				c-2.91,0.01-5.81,0.19-8.7,0.56V29.22c3.11-0.69,6.29-1.05,9.48-1.06c5.98,0,14.23,1.38,19.95,7.83l0.05,39.83
				C66.16,73.65,59.67,70.73,48.7,70.73z M72.68,36c5.72-6.4,13.97-7.83,19.95-7.83c3.19,0.01,6.37,0.36,9.48,1.06v42.07
				c-2.87-0.37-5.76-0.56-8.65-0.58c-10.9,0-17.41,2.93-20.79,5.1V36z M109.12,79.92c-9.29-3.8-19.4-5.16-29.37-3.95
				c4.43-1.45,9.06-2.15,13.72-2.06c3.37,0.02,6.73,0.28,10.06,0.78c0.87,0.13,1.69-0.47,1.82-1.34c0.01-0.09,0.02-0.17,0.02-0.26
				V33.01h3.82L109.12,79.92z"/>
		</g>
	</g>
	<g>
		<text transform="matrix(1.0198 0 0 1 26.3675 116.0041)" class="st1 st2 st3">EDUCACIÓN</text>
	</g>
</g>
</svg>
