<?xml version="1.0" encoding="utf-8"?>
<!-- Generator: Adobe Illustrator 24.0.3, SVG Export Plug-In . SVG Version: 6.00 Build 0)  -->
<svg version="1.1" id="Layer_1" xmlns="http://www.w3.org/2000/svg" xmlns:xlink="http://www.w3.org/1999/xlink" x="0px" y="0px"
	 viewBox="0 0 47.45 41.59" style="enable-background:new 0 0 47.45 41.59;" xml:space="preserve">
<style type="text/css">
	.st0{fill:#FFFFFF;}
</style>
<path class="st0" d="M47.45,17.39V9.88c0,0,0,0,0,0v0c0,0,0-0.01,0-0.01c0-0.03,0-0.06,0-0.08c0-0.01,0-0.02,0-0.03
	c0-0.02-0.01-0.04-0.01-0.06c0-0.01-0.01-0.03-0.01-0.04c0-0.02-0.01-0.03-0.01-0.05c0-0.02-0.01-0.03-0.02-0.05
	c-0.01-0.01-0.01-0.03-0.02-0.04c-0.01-0.02-0.02-0.04-0.03-0.06c0-0.01-0.01-0.02-0.01-0.03c-0.01-0.02-0.03-0.05-0.04-0.07
	c0,0-0.01-0.01-0.01-0.01c0,0,0,0,0,0c-0.02-0.03-0.04-0.05-0.06-0.08c-0.01-0.02-0.03-0.03-0.04-0.04
	c-0.01-0.01-0.01-0.02-0.02-0.02c-0.02-0.02-0.03-0.03-0.05-0.05c-0.01-0.01-0.01-0.01-0.02-0.02c-0.02-0.01-0.03-0.03-0.05-0.04
	c-0.01-0.01-0.02-0.01-0.02-0.02C47.01,9.06,47,9.05,46.98,9.04c-0.01-0.01-0.02-0.01-0.04-0.02C46.93,9.01,46.92,9.01,46.91,9
	c-0.02-0.01-0.03-0.02-0.05-0.02c-0.01,0-0.02-0.01-0.03-0.01c-0.02-0.01-0.04-0.02-0.06-0.02c-0.01,0-0.01,0-0.02-0.01
	c-0.02-0.01-0.05-0.01-0.07-0.02c-0.01,0-0.01,0-0.02,0c-0.03,0-0.05-0.01-0.08-0.01c-0.03,0-0.06,0-0.09,0c0,0,0,0,0,0h-5.74
	c0.8-0.94,1.28-2.16,1.28-3.49C42.02,2.43,39.59,0,36.6,0c-2.99,0-5.42,2.43-5.42,5.42c0,1.33,0.48,2.54,1.28,3.49H15.32
	c0.8-0.94,1.28-2.16,1.28-3.49c0-2.99-2.43-5.42-5.42-5.42S5.75,2.43,5.75,5.42c0,1.33,0.48,2.54,1.28,3.49H0.97
	C0.43,8.91,0,9.34,0,9.87v14.32c0,0,0,0,0,0v0c0,0,0,0.01,0,0.01c0,0.03,0,0.06,0,0.08c0,0.01,0,0.02,0,0.03
	c0,0.02,0.01,0.04,0.01,0.06c0,0.01,0.01,0.03,0.01,0.04c0,0.02,0.01,0.03,0.01,0.05c0,0.02,0.01,0.03,0.02,0.05
	c0.01,0.01,0.01,0.03,0.02,0.04c0.01,0.02,0.02,0.04,0.03,0.06c0,0.01,0.01,0.02,0.01,0.03c0.01,0.02,0.03,0.05,0.04,0.07
	c0,0,0.01,0.01,0.01,0.01c0,0,0,0,0,0c0.02,0.03,0.04,0.06,0.07,0.09c0.01,0.01,0.02,0.02,0.02,0.03c0.02,0.02,0.03,0.04,0.05,0.05
	c0.01,0.01,0.02,0.02,0.03,0.03c0.02,0.02,0.04,0.03,0.06,0.05c0.01,0.01,0.02,0.01,0.03,0.02c0.03,0.02,0.06,0.04,0.09,0.05
	c0.01,0,0.02,0.01,0.02,0.01c0.02,0.01,0.05,0.02,0.08,0.03c0.01,0,0.02,0.01,0.03,0.01c0.02,0.01,0.05,0.02,0.07,0.02
	c0.01,0,0.02,0.01,0.03,0.01c0.03,0.01,0.05,0.01,0.08,0.01c0.01,0,0.02,0,0.03,0c0.03,0,0.07,0.01,0.1,0.01c0,0,0.01,0,0.01,0
	c0,0,0,0,0,0H13c0,0,0,0,0,0c0,0,0,0,0,0h1.39v14.5H7.95V27.57c0-0.53-0.43-0.97-0.97-0.97s-0.97,0.43-0.97,0.97v13.06
	c0,0.53,0.43,0.97,0.97,0.97h8.37l0,0l0,0c0.03,0,0.06,0,0.09,0c0.01,0,0.02,0,0.04-0.01c0.02,0,0.04,0,0.06-0.01
	c0.01,0,0.03-0.01,0.04-0.01c0.02,0,0.03-0.01,0.05-0.01c0.01,0,0.03-0.01,0.04-0.01c0.02-0.01,0.03-0.01,0.05-0.02
	c0.01-0.01,0.03-0.01,0.04-0.02c0.02-0.01,0.03-0.01,0.04-0.02c0.01-0.01,0.03-0.01,0.04-0.02c0.01-0.01,0.03-0.02,0.04-0.03
	c0.01-0.01,0.03-0.02,0.04-0.03c0.01-0.01,0.03-0.02,0.04-0.03c0.01-0.01,0.03-0.02,0.04-0.03c0.01-0.01,0.02-0.01,0.02-0.02
	l7.9-7.54l7.82,7.53c0.01,0.01,0.02,0.01,0.03,0.02c0.01,0.01,0.03,0.02,0.04,0.03c0.01,0.01,0.02,0.02,0.04,0.03
	c0.01,0.01,0.02,0.02,0.04,0.03c0.01,0.01,0.03,0.02,0.04,0.03c0.01,0.01,0.02,0.01,0.04,0.02c0.02,0.01,0.03,0.01,0.05,0.02
	c0.01,0.01,0.03,0.01,0.04,0.02c0.02,0.01,0.03,0.01,0.05,0.02c0.01,0,0.03,0.01,0.04,0.01c0.02,0,0.03,0.01,0.05,0.01
	c0.01,0,0.03,0.01,0.04,0.01c0.02,0,0.04,0.01,0.06,0.01c0.01,0,0.02,0,0.04,0.01c0.03,0,0.06,0,0.09,0l0,0l0,0h8.37
	c0.53,0,0.97-0.43,0.97-0.97V25.16h4.74c0.53,0,0.97-0.43,0.97-0.97L47.45,17.39C47.45,17.4,47.45,17.39,47.45,17.39z M32.42,23.23
	h-4.2l17.31-11.55v5.2L36,23.23H32.42z M16.18,23.23l18.57-12.39h8.55L24.74,23.23H16.18z M4.15,23.23l14.24-9.51
	c0.44-0.3,0.56-0.9,0.27-1.34c-0.3-0.44-0.9-0.56-1.34-0.27L1.93,22.39v-5.31l9.35-6.24h19.99L12.7,23.23H4.15z M36.6,1.93
	c1.92,0,3.49,1.56,3.49,3.49s-1.56,3.49-3.49,3.49s-3.49-1.56-3.49-3.49C33.12,3.5,34.68,1.93,36.6,1.93z M11.17,1.93
	c1.92,0,3.49,1.56,3.49,3.49s-1.56,3.49-3.49,3.49S7.69,7.34,7.69,5.42C7.69,3.5,9.25,1.93,11.17,1.93z M7.8,10.84l-5.87,3.92v-3.92
	H7.8z M16.32,38.37v-11.9l6.21,5.98L16.32,38.37z M29.74,26.9c-0.37-0.39-0.98-0.4-1.37-0.03l-4.44,4.24l-6.18-5.95h7.27
	c0,0,0,0,0,0s0,0,0,0h6.42v13.19l-6.13-5.9l4.39-4.18C30.1,27.9,30.11,27.29,29.74,26.9z M39.82,39.66h-6.44v-14.5h6.44V39.66z
	 M40.79,23.23h-1.31l6.04-4.03v4.03H40.79z"/>
</svg>
