<?xml version="1.0" encoding="utf-8"?>
<!-- Generator: Adobe Illustrator 24.0.3, SVG Export Plug-In . SVG Version: 6.00 Build 0)  -->
<svg version="1.1" id="Layer_1" xmlns="http://www.w3.org/2000/svg" xmlns:xlink="http://www.w3.org/1999/xlink" x="0px" y="0px"
	 viewBox="0 0 142.18 148.37" style="enable-background:new 0 0 142.18 148.37;" xml:space="preserve">
<style type="text/css">
	.st0{fill:none;stroke:#FFFFFF;stroke-width:2;stroke-miterlimit:10;}
	.st1{fill:#FFFFFF;}
	.st2{font-family:'OpenSans-Semibold';}
	.st3{font-size:15px;}
</style>
<g>
	<rect x="1" y="1" class="st0" width="140.18" height="146.37"/>
	<g>
		<text transform="matrix(1.0198 0 0 1 35.815 116.0041)"><tspan x="0" y="0" class="st1 st2 st3">ENTORNO</tspan><tspan x="-9.72" y="18" class="st1 st2 st3">ECONÓMICO</tspan></text>
	</g>
	<g>
		<g>
			<g>
				<path class="st1" d="M115.63,67.64c-0.32-2.29-2.67-4.11-7.09-5.45c-3.57-1.07-8.09-1.72-13.01-1.83V41.61
					c0-0.39-0.12-0.76-0.37-1.05c-0.58-2.04-2.94-3.69-7.01-4.92c-3.96-1.2-9.12-1.85-14.56-1.85c-5.41,0-10.53,0.65-14.4,1.85
					c-3.18,0.98-7,2.81-7,5.96c0,0.19,0.02,0.39,0.05,0.58l0.19,8.02c-11.41-2.2-22.43,5.31-24.61,16.74
					c-0.25,1.28-0.37,2.6-0.37,3.92c0,11.6,9.44,21.04,21.04,21.04c4.83,0,9.51-1.67,13.27-4.71c3.31,0.77,7.17,1.2,11.27,1.23
					c0.9,4.87,11.45,7.1,21.29,7.1c5.41,0,10.51-0.67,14.42-1.88c3.2-0.98,7-2.83,7-5.98V68.33
					C115.75,68.1,115.72,67.85,115.63,67.64z M60.25,38.99c3.55-1.09,8.3-1.71,13.36-1.71c5.03,0,9.95,0.62,13.54,1.71
					c3.82,1.16,4.64,2.36,4.64,2.6c0,0.25-0.83,1.46-4.66,2.6c-3.57,1.07-8.49,1.71-13.52,1.71c-4.85,0-9.46-0.56-12.96-1.58
					c-3.78-1.09-4.83-2.3-4.92-2.69c0-0.04,0-0.05-0.02-0.05C55.73,41.33,56.54,40.13,60.25,38.99z M92.02,45.98v4.5
					c-0.16,0.25-0.25,0.55-0.23,0.84c0,0.23-0.83,1.44-4.66,2.6c-3.57,1.07-8.51,1.71-13.54,1.71c-4.34,0-8.6-0.46-11.97-1.32
					c-0.05-0.02-0.09-0.02-0.14-0.04c-1.67-1.32-3.52-2.36-5.5-3.11l-0.12-4.96c1.21,0.62,2.48,1.11,3.8,1.46
					c3.82,1.11,8.76,1.71,13.94,1.71c5.43,0,10.6-0.65,14.54-1.85C89.49,47.16,90.79,46.63,92.02,45.98z M60.3,83.8
					c-7.16,6.52-18.25,6-24.75-1.16s-6-18.25,1.16-24.75c3.23-2.94,7.44-4.57,11.8-4.57c1.76,0,3.52,0.26,5.2,0.77
					c6.08,1.92,10.67,6.96,11.99,13.2c0.23,1.16,0.35,2.36,0.35,3.53C66.05,75.78,63.96,80.5,60.3,83.8z M64.77,84.19
					c1.42-1.74,2.57-3.69,3.38-5.78c1.49,0.12,3.08,0.21,4.69,0.23v0.32l0.09,5.96C70.2,84.87,67.48,84.63,64.77,84.19z
					 M69.44,68.75c1.04,0.07,2.11,0.11,3.2,0.12c0,0.04,0.02,0.09,0.02,0.12l0.11,6.1c-1.25-0.02-2.46-0.07-3.64-0.16
					c0.26-1.35,0.4-2.74,0.4-4.11C69.55,70.14,69.52,69.45,69.44,68.75z M73.77,65.38c-0.05,0-0.11,0-0.16,0
					c-1.69,0-3.32-0.07-4.83-0.18c-0.67-2.36-1.72-4.57-3.15-6.54c2.64,0.33,5.29,0.51,7.96,0.51c5.43,0,10.6-0.65,14.56-1.85
					c1.35-0.42,2.64-0.93,3.87-1.58v4.66C84.46,60.61,76.65,62.19,73.77,65.38z M76.13,68.08c0.18-0.49,1.46-1.64,5.06-2.65
					c3.43-0.97,7.89-1.49,12.59-1.49H94c5.03,0,9.95,0.58,13.54,1.67c3.71,1.13,4.59,2.25,4.64,2.55v0.02
					c-0.02,0.26-0.9,1.48-4.8,2.64c-3.6,1.07-8.35,1.65-13.38,1.65c-4.75,0-9.28-0.55-12.76-1.51c-3.36-0.95-4.71-2.02-5.05-2.57
					C76.18,68.28,76.16,68.17,76.13,68.08z M112.24,87.65c0,0.25-0.79,1.46-4.52,2.62c-3.57,1.11-8.32,1.72-13.38,1.72
					c-5.08,0-9.83-0.6-13.34-1.67c-3.73-1.14-4.48-2.32-4.48-2.58c0-0.02,0-0.02,0-0.04l-0.09-5.08c4.18,2.13,11.16,3.09,17.56,3.09
					c5.43,0,10.57-0.65,14.5-1.85c1.3-0.39,2.55-0.91,3.74-1.55L112.24,87.65L112.24,87.65z M112.08,77.91
					c0,0.25-0.81,1.44-4.61,2.6c-3.6,1.09-8.39,1.69-13.48,1.69c-9.65,0-16.19-2.16-17.63-3.87l-0.04-1.51l-0.07-4.03
					c1.28,0.65,2.62,1.16,4.01,1.53c3.78,1.05,8.65,1.65,13.71,1.65c5.34,0,10.44-0.63,14.36-1.79c1.35-0.39,2.65-0.9,3.89-1.55
					v4.52h0.02C112.24,77.38,112.08,77.65,112.08,77.91z"/>
			</g>
		</g>
		<g>
			<g>
				<path class="st1" d="M57.28,80.23c-0.35-0.91-1.35-1.35-2.27-1.02c0-0.02,0-0.02,0-0.02c-3.32,1.27-7.07,0.46-9.56-2.06
					c-0.51-0.46-0.93-1-1.25-1.6h9.04c0.97,0,1.76-0.79,1.76-1.76c0-0.97-0.79-1.76-1.76-1.76H42.92c-0.11-0.63-0.12-1.28-0.05-1.93
					h11.29c0.97,0,1.76-0.79,1.76-1.76s-0.79-1.76-1.76-1.76H43.9c0.42-0.76,0.93-1.44,1.53-2.07c2.51-2.5,6.26-3.31,9.56-2.02
					c0.91,0.35,1.92-0.11,2.27-1c0.35-0.91-0.11-1.92-1-2.27c-4.61-1.78-9.83-0.67-13.33,2.83c-1.3,1.28-2.29,2.83-2.9,4.55h-2.5
					c-0.97,0-1.76,0.79-1.76,1.76c0,0.97,0.79,1.76,1.76,1.76h1.76c-0.04,0.65-0.04,1.28,0.04,1.93h-1.79
					c-0.97,0-1.76,0.79-1.76,1.76c0,0.97,0.79,1.76,1.76,1.76h2.69c0.6,1.53,1.53,2.94,2.71,4.1c3.48,3.5,8.7,4.62,13.33,2.85
					C57.17,82.15,57.61,81.15,57.28,80.23z"/>
			</g>
		</g>
	</g>
</g>
</svg>
