<?xml version="1.0" encoding="utf-8"?>
<!-- Generator: Adobe Illustrator 24.0.3, SVG Export Plug-In . SVG Version: 6.00 Build 0)  -->
<svg version="1.1" id="Layer_1" xmlns="http://www.w3.org/2000/svg" xmlns:xlink="http://www.w3.org/1999/xlink" x="0px" y="0px"
	 viewBox="0 0 142.18 148.37" style="enable-background:new 0 0 142.18 148.37;" xml:space="preserve">
<style type="text/css">
	.st0{fill:none;stroke:#FFFFFF;stroke-width:2;stroke-miterlimit:10;}
	.st1{fill:#FFFFFF;}
	.st2{font-family:'OpenSans-Semibold';}
	.st3{font-size:15px;}
</style>
<g>
	<rect x="1" y="1" class="st0" width="140.18" height="146.37"/>
	<g>
		<text transform="matrix(1.0198 0 0 1 32.4049 116.0042)"><tspan x="0" y="0" class="st1 st2 st3">POBREZA Y</tspan><tspan x="6.21" y="18" class="st1 st2 st3">EQUIDAD</tspan></text>
	</g>
	<g>
		<g>
			<path class="st1" d="M109.3,61.33l0.01,0L97.6,35.79l2.84-1.41l-1.06-2.13l-2.77,1.38l-0.37-0.82c-0.27-0.6-0.98-0.86-1.58-0.58
				c-0.26,0.12-0.47,0.33-0.58,0.58l-0.33,0.73c-2.01-0.94-4.21-1.42-6.43-1.42h-9.98v-2.38h2.38v-2.38h-2.04l0.85-3.42
				c0.66-2.63-0.94-5.29-3.57-5.94c-2.63-0.66-5.29,0.94-5.94,3.57c-0.19,0.78-0.19,1.6,0,2.38l0.85,3.42h-2.04v2.38h2.38v2.38
				h-9.98c-2.22,0-4.42,0.49-6.43,1.43l-0.33-0.73c-0.27-0.6-0.98-0.86-1.58-0.58c-0.26,0.12-0.47,0.33-0.58,0.58l-0.37,0.82
				l-2.77-1.38l-1.06,2.13l2.84,1.42L38.23,61.33c-0.07,0.16-0.11,0.32-0.11,0.5c0.01,4.59,3.73,8.31,8.32,8.32h11.88
				c4.59-0.01,8.31-3.73,8.32-8.32c0-0.17-0.04-0.34-0.12-0.49L54.78,35.7c1.71-0.79,3.56-1.2,5.45-1.2h9.98v43.48l-4.06,4.06h-4.26
				c-3.28,0-5.94,2.66-5.94,5.94c0,0.66,0.53,1.19,1.19,1.19h33.27c0.66,0,1.19-0.53,1.19-1.19c0-3.28-2.66-5.94-5.94-5.94h-4.26
				l-4.06-4.06V34.5h9.98c1.88,0,3.74,0.41,5.45,1.2L81.01,61.33c-0.07,0.16-0.11,0.32-0.11,0.5c0.01,4.59,3.73,8.31,8.32,8.32
				h11.88c4.59-0.01,8.31-3.73,8.32-8.32C109.42,61.66,109.38,61.49,109.3,61.33z M58.32,67.77H46.44c-2.82,0-5.25-1.99-5.82-4.75
				h23.53C63.58,65.78,61.14,67.77,58.32,67.77z M63.6,60.64H41.16l10.92-23.82c0.2,0.05,0.41,0.05,0.61,0L63.6,60.64z M71.78,21.21
				c0.93-1.1,2.57-1.24,3.66-0.31c0.11,0.1,0.22,0.2,0.31,0.31c0.48,0.61,0.65,1.41,0.46,2.17l-1,4h-2.9l-1-4
				C71.13,22.62,71.3,21.82,71.78,21.21z M72.58,32.12v-2.38h2.38v2.38H72.58z M74.96,34.5v42.78h-2.38V34.5H74.96z M85.65,84.4
				c1.51,0,2.86,0.95,3.36,2.38H58.52c0.51-1.42,1.85-2.37,3.36-2.38H85.65z M78.03,82.03h-8.52l2.38-2.38h3.77L78.03,82.03z
				 M94.85,36.83c0.2,0.07,0.41,0.06,0.6-0.02l10.93,23.84H83.94L94.85,36.83z M101.1,67.77H89.22c-2.82,0-5.25-1.99-5.82-4.75
				h23.53C106.36,65.78,103.92,67.77,101.1,67.77z"/>
		</g>
	</g>
</g>
</svg>
