<?xml version="1.0" encoding="utf-8"?>
<!-- Generator: Adobe Illustrator 24.0.3, SVG Export Plug-In . SVG Version: 6.00 Build 0)  -->
<svg version="1.1" id="Layer_1" xmlns="http://www.w3.org/2000/svg" xmlns:xlink="http://www.w3.org/1999/xlink" x="0px" y="0px"
	 viewBox="0 0 31.39 31.39" style="enable-background:new 0 0 31.39 31.39;" xml:space="preserve">
<style type="text/css">
	.st0{fill:#F8981D;}
</style>
<g>
	<path class="st0" d="M15.62,31.39C6.95,31.36-0.01,24.36,0,15.67C0.01,6.95,7.05-0.04,15.77,0c8.67,0.04,15.65,7.06,15.62,15.72
		C31.36,24.46,24.36,31.41,15.62,31.39z M24.88,16.08c-0.04,0-0.07,0-0.11,0c0-1.25,0.05-2.5-0.01-3.74
		c-0.15-3.19-1.71-5.07-4.82-5.27c-2.98-0.19-5.99-0.13-8.97,0.07C8.61,7.3,6.95,8.97,6.81,11.35c-0.18,3.11-0.18,6.24,0,9.34
		c0.14,2.43,1.89,4.13,4.34,4.25c3.05,0.16,6.11,0.15,9.16-0.01c2.37-0.12,3.99-1.75,4.3-4.1C24.82,19.27,24.8,17.67,24.88,16.08z"
		/>
	<path class="st0" d="M15.76,8.64c1.22,0,2.44-0.04,3.65,0.01c2.35,0.08,3.61,1.29,3.67,3.61c0.06,2.5,0.06,5,0,7.5
		c-0.06,2.34-1.28,3.58-3.63,3.64c-2.5,0.07-5,0.07-7.5,0c-2.35-0.07-3.56-1.29-3.62-3.66c-0.06-2.5-0.06-5,0-7.5
		c0.05-2.28,1.3-3.5,3.58-3.59C13.2,8.6,14.48,8.65,15.76,8.64z M15.77,20.69c2.56-0.01,4.59-2.07,4.6-4.68
		c0.02-2.55-2.08-4.66-4.63-4.66c-2.61,0-4.73,2.12-4.7,4.69C11.08,18.68,13.13,20.7,15.77,20.69z M21.8,11.42
		c0-0.15,0-0.3,0.01-0.46c-0.4-0.29-0.77-0.73-1.21-0.82c-0.63-0.13-1.07,0.31-1.1,0.97c-0.03,0.7,0.37,1.21,1.07,1.1
		C21,12.14,21.39,11.7,21.8,11.42z"/>
	<path class="st0" d="M15.73,13.01c1.65,0,3.02,1.4,3,3.09c-0.01,1.61-1.42,2.97-3.03,2.95c-1.64-0.03-2.99-1.36-3.01-2.98
		C12.67,14.4,14.06,13.01,15.73,13.01z"/>
</g>
</svg>
