<?xml version="1.0" encoding="utf-8"?>
<!-- Generator: Adobe Illustrator 24.0.3, SVG Export Plug-In . SVG Version: 6.00 Build 0)  -->
<svg version="1.1" id="Layer_1" xmlns="http://www.w3.org/2000/svg" xmlns:xlink="http://www.w3.org/1999/xlink" x="0px" y="0px"
	 viewBox="0 0 31.39 31.42" style="enable-background:new 0 0 31.39 31.42;" xml:space="preserve">
<style type="text/css">
	.st0{fill:#F8981D;}
</style>
<path class="st0" d="M0,15.68C0.01,7.03,7.02,0.01,15.68,0c8.69-0.01,15.72,7.03,15.71,15.74c-0.01,8.71-7.05,15.7-15.77,15.68
	C6.97,31.4-0.01,24.37,0,15.68z M16.68,13.72c-3.05-0.18-5.42-1.51-7.44-3.73c-0.86,1.86-0.45,3.36,0.97,4.81
	c-0.6-0.13-1-0.22-1.46-0.33c0.1,1.74,1.04,2.77,2.69,3.55c-0.62,0.04-0.95,0.06-1.35,0.09c0.5,1.53,1.66,2.15,3.14,2.51
	c-1.46,1.14-3.07,1.47-5.02,1.47c0.41,0.26,0.59,0.4,0.8,0.5c6.1,3.08,13.43-0.54,14.7-7.27c0.38-2.02,0.51-2.31,1.68-3.88
	c0.05-0.06,0.07-0.15,0.13-0.29c-0.52,0.12-0.99,0.23-1.51,0.35c0.42-0.61,0.79-1.14,1.15-1.66c-0.58,0.06-1,0.29-1.45,0.38
	c-0.35,0.07-0.84,0.1-1.1-0.08c-1.32-0.96-2.71-1.16-4.13-0.36C17.04,10.6,16.48,11.94,16.68,13.72z"/>
</svg>
